<svg width="99" height="87" viewBox="0 0 99 87" fill="none" xmlns="http://www.w3.org/2000/svg">
<rect width="7.00347" height="2.2207" transform="matrix(0.209767 -0.977751 0.989662 0.143422 20.3954 86.6815)" fill="#F62584" fill-opacity="0.45"/>
<rect width="1.83429" height="2.23154" transform="matrix(0.0212331 -0.999775 0.999897 0.0143446 65.0284 59.1691)" fill="#DCBCFA" fill-opacity="0.9"/>
<rect width="3.53504" height="2.10916" transform="matrix(-0.648512 0.761205 -0.866723 -0.49879 38.2487 66.5058)" fill="#480CA7" fill-opacity="0.6"/>
<rect width="8.43355" height="1.84267" transform="matrix(0.993395 0.114745 -0.168552 0.985693 0.310547 9.64691)" fill="#FC9E1C" fill-opacity="0.6"/>
<rect width="2.13344" height="1.94752" transform="matrix(0.896626 -0.442788 0.590179 0.807273 51.6385 57.335)" fill="#FF21FB" fill-opacity="0.65"/>
<rect width="8.21135" height="1.91122" transform="matrix(0.933772 -0.357869 0.493472 0.869762 13.7004 35.3251)" fill="#9DED1A" fill-opacity="0.9"/>
<rect width="3.31358" height="4.08191" transform="matrix(0.230157 -0.973154 0.987478 0.157757 82.8816 26.1544)" fill="#C9FCBE" fill-opacity="0.6"/>
<ellipse cx="55.3235" cy="31.4803" rx="1.74706" ry="1.7171" fill="#FFED36" fill-opacity="0.6"/>
<ellipse cx="33.1941" cy="20.0329" rx="1.74706" ry="1.7171" fill="#9DED1A" fill-opacity="0.6"/>
<ellipse cx="21.5471" cy="67.5395" rx="0.582353" ry="1.14474" fill="#FF21FB" fill-opacity="0.35"/>
<ellipse cx="23.2941" cy="12.5921" rx="1.16471" ry="1.14474" fill="#C9FCBE"/>
<ellipse cx="34.9412" cy="43.5" rx="1.16471" ry="1.14474" fill="#C9FCBE" fill-opacity="0.9"/>
<ellipse cx="69.3" cy="13.1645" rx="1.74706" ry="1.7171" fill="#DCBCFA" fill-opacity="0.9"/>
<ellipse cx="15.1411" cy="50.9408" rx="1.16471" ry="0.572368" fill="#FC9E1C" fill-opacity="0.6"/>
<path d="M33.6098 4.95236L35.3307 3.8473L35.6347 5.62475L33.6098 4.95236Z" fill="#F54721" fill-opacity="0.75"/>
<path d="M96.1395 64.4674L94.2167 63.3193L94.4651 61.3766L96.6364 60.5821L98.5592 61.7303L98.3107 63.6729L96.1395 64.4674Z" fill="#4BC8EF" fill-opacity="0.45"/>
<path d="M36.1443 0.238079L38.5879 1.35136L38.0548 3.6055L35.2817 3.88536L34.1009 1.80417L36.1443 0.238079Z" fill="#9AF5FC" fill-opacity="0.85"/>
<path d="M71.051 77.1508L69.7107 80.3498L67.01 77.7963L71.051 77.1508Z" fill="#03A3F5" fill-opacity="0.75"/>
<path d="M83.8954 44.2277L83.0038 42.9585L84.548 42.2257L85.4396 43.4949L83.8954 44.2277Z" fill="#480CA7" fill-opacity="0.85"/>
<path d="M60.8499 60.2895L57.5398 59.8098L58.1234 57.0893L61.4335 57.569L60.8499 60.2895Z" fill="#03A3F5" fill-opacity="0.9"/>
<path d="M18.1655 78.1788L18.0481 79.5348L19.6932 79.6752L18.2057 80.2696L18.8803 81.5108L17.5103 80.7492L16.5397 81.85L16.6572 80.494L15.012 80.3536L16.4995 79.7592L15.8249 78.518L17.195 79.2796L18.1655 78.1788Z" fill="#BA3E03"/>
<path d="M34.5213 51.5164L32.7691 51.0291L31.1785 51.8051L31.7714 50.3651L30.8272 49.0578L32.5793 49.545L34.1699 48.769L33.5771 50.2091L34.5213 51.5164Z" fill="#F62584" fill-opacity="0.75"/>
<path d="M39.9456 70.2433L38.1109 70.4366L37.0951 71.7072L36.8599 70.1992L35.314 69.3644L37.1487 69.1711L38.1644 67.9006L38.3997 69.4085L39.9456 70.2433Z" fill="#FC9E1C" fill-opacity="0.45"/>
<path d="M81.144 62.914L79.5806 63.7265L79.3134 65.2308L78.3248 63.9459L76.4945 63.7262L78.0579 62.9137L78.3251 61.4094L79.3137 62.6944L81.144 62.914Z" fill="#4BC8EF" fill-opacity="0.75"/>
<path d="M67.5084 71.8997L69.1975 71.6046L69.378 70.1932L70.2414 71.4223L71.9304 71.1272L70.775 72.1819L71.6384 73.4109L70.0609 72.8337L68.9054 73.8884L69.0859 72.4769L67.5084 71.8997Z" fill="#480CA7" fill-opacity="0.35"/>
<path d="M17.8163 5.14062L16.8377 5.20118L16.2567 5.85113L16.183 5.04688L15.3922 4.56934L16.3707 4.50878L16.9518 3.85883L17.0255 4.66308L17.8163 5.14062Z" fill="#9AF5FC" fill-opacity="0.75"/>
<path d="M27.953 17.1711L27.7305 16.405L26.9443 16.5987L27.5081 16.0263L26.9443 15.454L27.7305 15.6477L27.953 14.8816L28.1754 15.6477L28.9616 15.454L28.3978 16.0263L28.9616 16.5987L28.1754 16.405L27.953 17.1711Z" fill="#03A3F5" fill-opacity="0.45"/>
</svg>
